<?xml version="1.0" encoding="utf-8"?>
<!-- Generator: Adobe Illustrator 21.0.2, SVG Export Plug-In . SVG Version: 6.00 Build 0)  -->
<svg version="1.1" id="Layer_1" xmlns="http://www.w3.org/2000/svg" xmlns:xlink="http://www.w3.org/1999/xlink" x="0px" y="0px"
	 viewBox="0 0 72 72" style="enable-background:new 0 0 72 72;" xml:space="preserve">
<style type="text/css">
	.st0{fill:#757575;}
	.st0:hover{fill:#01579b;}
</style>
<g>
	<path class="st0" d="M0,60.3C0,66.8,6.1,72,13.6,72s13.6-5.2,13.6-11.7c0-1-0.2-2.2-0.6-3.1V14.6l38.9-8.9v27.4
		c-2.2-1.3-5-2.1-7.9-2.1c-7.8,0-14.2,5.5-14.2,12.2c0,6.7,6.5,12.2,14.3,12.2S72,49.9,72,43.2c0-0.2,0-0.6,0-0.8l0,0V4
		c0-2.3-2.1-4-4.7-4H67L24.8,9.3c-2.4,0.2-4.3,1.9-4.3,4v36.8c-2-1-4.3-1.6-6.9-1.6C6.1,48.6,0,53.8,0,60.3z"/>
</g>
</svg>
